# xmcd
#
# Track frame offsets:
#	150
#	23587
#	42427
#	65312
#	95252
#	121010
#	145862
#
# Disc length: 2269 seconds
#
# Revision: 1
# Processed by: cddbd v1.5PL3 Copyright (c) Steve Scherf et al.
# Submitted via: CDex 1.50Beta5
#
DISCID=5008db07
DTITLE=SHADY DOLLS - こころの眼
DYEAR=1991
DGENRE=Pop
TTITLE0=皮肉まじりのハッピーバースデイトゥユー
TTITLE1=何だったっけ!?
TTITLE2=急がば廻れ
TTITLE3=カナヅチの夜、そして底無しの夜
TTITLE4=いねむりの途中
TTITLE5=いまさら…
TTITLE6=やつらの足音のバラード
EXTD=
EXTT0=
EXTT1=
EXTT2=
EXTT3=
EXTT4=
EXTT5=
EXTT6=
PLAYORDER=
